<svg width="63" height="63" viewBox="0 0 63 63" fill="none" xmlns="http://www.w3.org/2000/svg">
<mask id="mask0_2099_232" style="mask-type:alpha" maskUnits="userSpaceOnUse" x="0" y="0" width="63" height="63">
<rect width="62.0779" height="62.0779" fill="#D9D9D9"/>
</mask>
<g mask="url(#mask0_2099_232)">
<path d="M20.6933 36.2123H41.3859V34.7897C41.3859 32.8929 40.4375 31.3625 38.5407 30.1985C36.6439 29.0345 34.1435 28.4526 31.0396 28.4526C27.9357 28.4526 25.4354 29.0345 23.5385 30.1985C21.6417 31.3625 20.6933 32.8929 20.6933 34.7897V36.2123ZM31.0396 25.866C32.4622 25.866 33.6801 25.3594 34.6932 24.3464C35.7062 23.3333 36.2128 22.1154 36.2128 20.6928C36.2128 19.2702 35.7062 18.0524 34.6932 17.0393C33.6801 16.0262 32.4622 15.5197 31.0396 15.5197C29.617 15.5197 28.3992 16.0262 27.3861 17.0393C26.373 18.0524 25.8665 19.2702 25.8665 20.6928C25.8665 22.1154 26.373 23.3333 27.3861 24.3464C28.3992 25.3594 29.617 25.866 31.0396 25.866ZM5.17383 56.9049V10.3465C5.17383 8.92388 5.68037 7.70603 6.69344 6.69296C7.70652 5.67988 8.92437 5.17334 10.347 5.17334H51.7323C53.1549 5.17334 54.3727 5.67988 55.3858 6.69296C56.3989 7.70603 56.9054 8.92388 56.9054 10.3465V41.3855C56.9054 42.8081 56.3989 44.0259 55.3858 45.039C54.3727 46.0521 53.1549 46.5586 51.7323 46.5586H15.5201L5.17383 56.9049ZM13.3216 41.3855H51.7323V10.3465H10.347V44.2954L13.3216 41.3855Z" fill="#507863"/>
</g>
</svg>
