<svg width="28" height="26" viewBox="0 0 28 26" fill="none" xmlns="http://www.w3.org/2000/svg">
<g clip-path="url(#clip0_0_111)">
<path d="M1.16663 1.0835H5.83329L8.95996 15.5893C9.06665 16.0881 9.35885 16.5361 9.78543 16.855C10.212 17.1739 10.7458 17.3432 11.2933 17.3335H22.6333C23.1808 17.3432 23.7146 17.1739 24.1412 16.855C24.5677 16.5361 24.8599 16.0881 24.9666 15.5893L26.8333 6.50016H6.99996M11.6666 22.7502C11.6666 23.3485 11.1443 23.8335 10.5 23.8335C9.85563 23.8335 9.33329 23.3485 9.33329 22.7502C9.33329 22.1519 9.85563 21.6668 10.5 21.6668C11.1443 21.6668 11.6666 22.1519 11.6666 22.7502ZM24.5 22.7502C24.5 23.3485 23.9776 23.8335 23.3333 23.8335C22.689 23.8335 22.1666 23.3485 22.1666 22.7502C22.1666 22.1519 22.689 21.6668 23.3333 21.6668C23.9776 21.6668 24.5 22.1519 24.5 22.7502Z" stroke="#507863" stroke-width="3" stroke-linecap="round" stroke-linejoin="round"/>
</g>
<defs>
<clipPath id="clip0_0_111">
<rect width="28" height="26" fill="white"/>
</clipPath>
</defs>
</svg>
