<svg width="31" height="31" viewBox="0 0 31 31" fill="none" xmlns="http://www.w3.org/2000/svg">
<path d="M22.6042 8.396H22.6171M9.04171 2.5835H21.9584C25.5252 2.5835 28.4167 5.47499 28.4167 9.04183V21.9585C28.4167 25.5253 25.5252 28.4168 21.9584 28.4168H9.04171C5.47487 28.4168 2.58337 25.5253 2.58337 21.9585V9.04183C2.58337 5.47499 5.47487 2.5835 9.04171 2.5835ZM20.6667 14.6864C20.8261 15.7614 20.6425 16.8593 20.142 17.8239C19.6415 18.7885 18.8495 19.5707 17.8788 20.0593C16.9081 20.5479 15.808 20.718 14.7351 20.5453C13.6622 20.3727 12.671 19.8661 11.9025 19.0977C11.1341 18.3292 10.6275 17.338 10.4549 16.2651C10.2822 15.1922 10.4523 14.0921 10.9409 13.1214C11.4295 12.1507 12.2117 11.3587 13.1763 10.8582C14.1409 10.3577 15.2388 10.1741 16.3138 10.3335C17.4103 10.4961 18.4255 11.0071 19.2093 11.7909C19.9931 12.5747 20.5041 13.5899 20.6667 14.6864Z" stroke="#507863" stroke-width="2" stroke-linecap="round" stroke-linejoin="round"/>
</svg>
