<svg width="63" height="63" viewBox="0 0 63 63" fill="none" xmlns="http://www.w3.org/2000/svg">
<mask id="mask0_2099_244" style="mask-type:alpha" maskUnits="userSpaceOnUse" x="0" y="0" width="63" height="63">
<rect width="62.0779" height="62.0779" fill="#D9D9D9"/>
</mask>
<g mask="url(#mask0_2099_244)">
<path d="M52.1196 33.6256H20.6927V28.4524H52.1196L48.1104 24.4432L51.7316 20.6927L62.0779 31.039L51.7316 41.3853L48.1104 37.6348L52.1196 33.6256ZM38.7987 23.2792V12.9329H12.9329V49.145H38.7987V38.7987H43.9719V49.145C43.9719 50.5677 43.4653 51.7855 42.4523 52.7986C41.4392 53.8117 40.2213 54.3182 38.7987 54.3182H12.9329C11.5103 54.3182 10.2925 53.8117 9.27938 52.7986C8.2663 51.7855 7.75977 50.5677 7.75977 49.145V12.9329C7.75977 11.5103 8.2663 10.2925 9.27938 9.27938C10.2925 8.2663 11.5103 7.75977 12.9329 7.75977H38.7987C40.2213 7.75977 41.4392 8.2663 42.4523 9.27938C43.4653 10.2925 43.9719 11.5103 43.9719 12.9329V23.2792H38.7987Z" fill="#507863"/>
</g>
</svg>
