<svg width="63" height="63" viewBox="0 0 63 63" fill="none" xmlns="http://www.w3.org/2000/svg">
<mask id="mask0_2099_196" style="mask-type:alpha" maskUnits="userSpaceOnUse" x="0" y="0" width="63" height="63">
<rect width="62.0779" height="62.0779" fill="#D9D9D9"/>
</mask>
<g mask="url(#mask0_2099_196)">
<path d="M10.3466 51.7318V18.3649L5.30273 7.37193L9.95858 5.17334L16.037 18.2356H46.0414L52.1198 5.17334L56.7757 7.37193L51.7318 18.3649V51.7318H10.3466ZM25.866 33.6257H36.2124C36.9452 33.6257 37.5595 33.3778 38.0553 32.8821C38.5511 32.3863 38.7989 31.772 38.7989 31.0391C38.7989 30.3063 38.5511 29.692 38.0553 29.1962C37.5595 28.7004 36.9452 28.4526 36.2124 28.4526H25.866C25.1332 28.4526 24.5189 28.7004 24.0231 29.1962C23.5273 29.692 23.2795 30.3063 23.2795 31.0391C23.2795 31.772 23.5273 32.3863 24.0231 32.8821C24.5189 33.3778 25.1332 33.6257 25.866 33.6257ZM15.5197 46.5586H46.5587V23.4087H15.5197V46.5586Z" fill="#507863"/>
</g>
</svg>
