<svg width="208" height="30" viewBox="0 0 208 30" fill="none" xmlns="http://www.w3.org/2000/svg">
<path d="M2 13C0.89543 13 0 13.8954 0 15C0 16.1046 0.89543 17 2 17V13ZM207.414 16.4142C208.195 15.6332 208.195 14.3668 207.414 13.5858L194.686 0.857864C193.905 0.0768156 192.639 0.0768156 191.858 0.857864C191.077 1.63891 191.077 2.90524 191.858 3.68629L203.172 15L191.858 26.3137C191.077 27.0948 191.077 28.3611 191.858 29.1421C192.639 29.9232 193.905 29.9232 194.686 29.1421L207.414 16.4142ZM2 17H206V13H2V17Z" fill="white"/>
</svg>
